<svg width="9" height="10" viewBox="0 0 9 10" fill="none" xmlns="http://www.w3.org/2000/svg">
<path d="M8.02877 8.92888L6.54089 7.43001C5.8149 8.01182 4.89343 8.29358 3.96594 8.21734C3.03844 8.14111 2.17542 7.7127 1.55434 7.02015C0.933257 6.32764 0.601319 5.42363 0.626775 4.49405C0.65223 3.5645 1.03315 2.67999 1.6912 2.02244C2.34925 1.36488 3.23442 0.984257 4.1647 0.958821C5.09498 0.933384 5.99968 1.26507 6.69271 1.88568C7.38579 2.5063 7.81452 3.36866 7.89081 4.29544C7.96711 5.22223 7.68514 6.14301 7.10289 6.86844L8.59076 8.35519C8.62865 8.39276 8.65873 8.43745 8.67927 8.48665C8.69981 8.5359 8.71036 8.58871 8.71036 8.64204C8.71036 8.69536 8.69981 8.74817 8.67927 8.79742C8.65873 8.84666 8.62865 8.89135 8.59076 8.92888C8.51536 9.00172 8.4146 9.04241 8.30976 9.04241C8.20493 9.04241 8.10417 9.00172 8.02877 8.92888ZM7.10289 4.60196C7.10289 4.04264 6.93692 3.49586 6.62592 3.03079C6.31492 2.56572 5.87292 2.20324 5.35577 1.98919C4.83861 1.77514 4.26954 1.71913 3.72054 1.82826C3.17154 1.93738 2.66725 2.20672 2.27144 2.60223C1.87562 2.99775 1.60608 3.50166 1.49687 4.05024C1.38767 4.59885 1.44372 5.16745 1.65793 5.68421C1.87213 6.20098 2.23489 6.64264 2.70031 6.9534C3.16574 7.26417 3.71293 7.43001 4.27269 7.43001C5.0233 7.43001 5.74318 7.13206 6.27392 6.60172C6.80471 6.07134 7.10289 5.352 7.10289 4.60196Z" fill="white"/>
</svg>
